<svg xmlns="http://www.w3.org/2000/svg" width="64" height="64" viewBox="0 0 64 64">
  <defs>
    <linearGradient id="g" x1="0" y1="0" x2="1" y2="1">
      <stop offset="0" stop-color="#7c3aed"/>
      <stop offset="1" stop-color="#22d3ee"/>
    </linearGradient>
  </defs>
  <rect x="8" y="8" width="48" height="48" rx="14" fill="url(#g)"/>
  <path d="M22 24h20v6H28v5h12c4 0 7 3 7 7v1c0 4-3 7-7 7H22v-6h18c1 0 2-1 2-2v-1c0-1-1-2-2-2H28c-4 0-7-3-7-7v-1c0-4 3-7 7-7z" fill="rgba(5,8,20,.92)"/>
</svg>
