<svg xmlns="http://www.w3.org/2000/svg" width="256" height="64" viewBox="0 0 256 64">
  <defs>
    <linearGradient id="g" x1="0" y1="0" x2="1" y2="1">
      <stop offset="0" stop-color="#7c3aed"/>
      <stop offset="1" stop-color="#22d3ee"/>
    </linearGradient>
    <filter id="s" x="-20%" y="-50%" width="140%" height="200%">
      <feDropShadow dx="0" dy="10" stdDeviation="10" flood-color="#000" flood-opacity="0.45"/>
    </filter>
  </defs>
  <rect x="6" y="8" rx="14" ry="14" width="48" height="48" fill="url(#g)" filter="url(#s)"/>
  <path d="M22 25h20v6H28v5h12c4 0 7 3 7 7v1c0 4-3 7-7 7H22v-6h18c1 0 2-1 2-2v-1c0-1-1-2-2-2H28c-4 0-7-3-7-7v-1c0-4 3-7 7-7z" fill="rgba(5,8,20,.92)"/>
  <text x="68" y="40" font-family="ui-sans-serif,system-ui,-apple-system,Segoe UI,Roboto,Helvetica,Arial" font-size="20" font-weight="950" fill="rgba(255,255,255,.92)">
    GargiolasTech
  </text>
</svg>
